<svg xmlns="http://www.w3.org/2000/svg" viewBox="0 0 24 24" width="34" height="34">
  <path fill="white" d="M12 0C5.373 0 0 5.373 0 12c0 5.303 3.438 9.8 8.207 11.387.6.111.793-.26.793-.577 0-.287-.01-1.05-.015-2.063-3.338.727-4.042-1.609-4.042-1.609-.545-1.384-1.333-1.755-1.333-1.755-1.089-.743.083-.728.083-.728 1.205.085 1.838 1.24 1.838 1.24 1.07 1.832 2.809 1.302 3.495.996.108-.776.418-1.302.76-1.602-2.665-.303-5.467-1.333-5.467-5.933 0-1.313.468-2.384 1.236-3.219-.124-.303-.536-1.524.117-3.168 0 0 1.008-.323 3.3 1.236.96-.267 1.99-.4 3.006-.405 1.016.005 2.046.138 3.006.405 2.292-1.559 3.3-1.236 3.3-1.236.653 1.644.241 2.865.117 3.168.768.835 1.236 1.906 1.236 3.219 0 4.612-2.803 5.63-5.47 5.933.43.372.815 1.104.815 2.227 0 1.607-.015 2.897-.015 3.29 0 .319.191.692.799.576C20.563 21.8 24 17.303 24 12c0-6.627-5.373-12-12-12z"/>
</svg>
